<svg width="30" height="30" viewBox="0 0 30 30" fill="none" xmlns="http://www.w3.org/2000/svg">
<path d="M13.8098 12.3105H8.09549V29.8273H13.8098V12.3105Z" fill="white"/>
<path d="M21.9043 17.0566H16.1899V29.8274H21.9043V17.0566Z" fill="white"/>
<path d="M29.9998 9.04785H24.2854V29.8273H29.9998V9.04785Z" fill="white"/>
<path d="M5.71436 18.9199H0V29.8276H5.71436V18.9199Z" fill="white"/>
<path d="M2.85715 14.6337C4.17182 14.6337 5.23782 13.5677 5.23782 12.2537C5.23782 11.9421 5.17382 11.6461 5.06482 11.3731L9.64651 7.63237C10.0218 7.8787 10.4695 8.0247 10.9522 8.0247C11.5649 8.0247 12.1179 7.7867 12.5399 7.4067L16.7315 9.87238C16.6915 10.0444 16.6665 10.2214 16.6665 10.4057C16.6665 11.7207 17.7322 12.7867 19.0476 12.7867C20.3629 12.7867 21.4289 11.7211 21.4289 10.4057C21.4289 10.013 21.3246 9.64838 21.1562 9.32171L26.0409 4.47969C26.3719 4.65402 26.7429 4.76202 27.1433 4.76202C28.4583 4.76202 29.5243 3.69602 29.5243 2.38201C29.5243 1.067 28.4586 0 27.1433 0C25.8279 0 24.7622 1.067 24.7622 2.38201C24.7622 2.77435 24.8666 3.13935 25.0346 3.46602L20.1496 8.30704C19.8186 8.1327 19.4476 8.0247 19.0472 8.0247C18.4342 8.0247 17.8819 8.26271 17.4595 8.64271L13.2679 6.17736C13.3075 6.00503 13.3332 5.82803 13.3332 5.64369C13.3332 4.32869 12.2672 3.26268 10.9525 3.26268C9.63751 3.26268 8.57117 4.32869 8.57117 5.64369C8.57117 5.95569 8.63517 6.25136 8.74384 6.52436L4.16315 10.2647C3.78782 10.0177 3.33981 9.87171 2.85748 9.87171C1.54247 9.87171 0.476135 10.9384 0.476135 12.2537C0.476135 13.5677 1.54214 14.6337 2.85715 14.6337Z" fill="white"/>
</svg>
