<svg width="1302" height="86" viewBox="0 0 1302 86" fill="none" xmlns="http://www.w3.org/2000/svg">
<g clip-path="url(#clip0)">
<path fill-rule="evenodd" clip-rule="evenodd" d="M92.9235 6.53209C92.9236 6.53212 92.9236 6.53215 92.9237 6.53218L153.598 41.5818L153.598 41.5819C160.301 45.4554 164.429 52.6091 164.429 60.3562V130.456C164.429 138.203 160.301 145.356 153.598 149.23L153.598 149.23L92.9237 184.28C86.2207 188.153 77.9641 188.153 71.2611 184.28L10.587 149.23L10.5869 149.23C3.88408 145.356 -0.244141 138.203 -0.244141 130.456V60.3562C-0.244141 52.6091 3.88408 45.4554 10.5869 41.5819L10.587 41.5818L71.2611 6.53218C71.2611 6.53215 71.2612 6.53212 71.2612 6.53209C77.9642 2.65858 86.2206 2.65858 92.9235 6.53209ZM91.7656 8.53855C85.7792 5.07903 78.4056 5.07903 72.4192 8.53855L72.419 8.53865L11.745 43.5883C5.75834 47.0479 2.07145 53.4369 2.07145 60.3562V130.456C2.07145 137.375 5.75827 143.764 11.7448 147.223C11.7449 147.223 11.7449 147.223 11.745 147.223L72.419 182.273L72.4192 182.273C78.4056 185.733 85.7792 185.733 91.7656 182.273L91.7658 182.273L152.44 147.223C158.426 143.764 162.113 137.375 162.113 130.456V60.3562C162.113 53.4369 158.426 47.0479 152.44 43.5883L91.7658 8.53865L91.7656 8.53855ZM82.0982 46.5008C55.1068 46.5008 33.2219 68.3986 33.2219 95.4059C33.2219 122.413 55.1068 144.311 82.0982 144.311C109.089 144.311 130.974 122.413 130.974 95.4059C130.974 68.3986 109.089 46.5008 82.0982 46.5008ZM30.9063 95.4059C30.9063 67.119 53.828 44.1838 82.0982 44.1838C110.368 44.1838 133.29 67.119 133.29 95.4059C133.29 123.693 110.368 146.628 82.0982 146.628C53.828 146.628 30.9063 123.693 30.9063 95.4059Z" fill="url(#paint0_linear)"/>
<path fill-rule="evenodd" clip-rule="evenodd" d="M255.327 6.77525C255.327 6.77528 255.327 6.77532 255.327 6.77535L316.001 41.825L316.001 41.8251C322.704 45.6985 326.832 52.8521 326.832 60.5935V130.699C326.832 138.446 322.704 145.6 316.001 149.473L316.001 149.473L255.327 184.523C248.624 188.396 240.367 188.396 233.664 184.523L172.99 149.473L172.99 149.473C166.287 145.6 162.159 138.446 162.159 130.699V60.5993C162.159 52.8523 166.287 45.6986 172.99 41.8251L172.99 41.825L233.664 6.77535C233.664 6.77532 233.664 6.77528 233.665 6.77525C240.367 2.90174 248.624 2.90174 255.327 6.77525ZM254.169 8.78171C248.182 5.32219 240.809 5.32219 234.822 8.78171L234.822 8.78181L174.148 43.8315C168.162 47.2911 164.475 53.68 164.475 60.5993V130.699C164.475 137.618 168.162 144.007 174.148 147.467C174.148 147.467 174.148 147.467 174.148 147.467L234.822 182.516L234.822 182.516C240.809 185.976 248.182 185.976 254.169 182.516L254.169 182.516L314.843 147.467C320.83 144.007 324.517 137.618 324.517 130.699V60.5935C324.517 53.6802 320.83 47.2912 314.843 43.8315L254.169 8.78181L254.169 8.78171ZM244.496 46.7381C217.504 46.7381 195.619 68.636 195.619 95.6433C195.619 122.651 217.504 144.548 244.496 144.548C271.487 144.548 293.372 122.651 293.372 95.6433C293.372 68.636 271.487 46.7381 244.496 46.7381ZM193.304 95.6433C193.304 67.3564 216.226 44.4212 244.496 44.4212C272.766 44.4212 295.688 67.3564 295.688 95.6433C295.688 123.93 272.766 146.865 244.496 146.865C216.226 146.865 193.304 123.93 193.304 95.6433Z" fill="url(#paint1_linear)"/>
<path fill-rule="evenodd" clip-rule="evenodd" d="M417.725 6.53209C417.725 6.53212 417.725 6.53215 417.726 6.53218L478.399 41.5818L478.4 41.5819C485.102 45.4551 489.237 52.6085 489.237 60.3562V130.456C489.237 138.203 485.108 145.356 478.405 149.23L478.405 149.23L417.731 184.28C411.028 188.153 402.772 188.153 396.069 184.28L335.395 149.23L335.394 149.23C328.692 145.356 324.563 138.203 324.563 130.456V60.3562C324.563 52.6091 328.692 45.4554 335.394 41.5819L335.395 41.5818L396.063 6.53218C402.766 2.65858 411.022 2.65854 417.725 6.53209ZM416.567 8.53855C410.581 5.07903 403.207 5.07903 397.221 8.53855L397.221 8.53862L336.553 43.5883C336.553 43.5883 336.552 43.5883 336.552 43.5884C330.566 47.048 326.879 53.4369 326.879 60.3562V130.456C326.879 137.375 330.566 143.764 336.552 147.223C336.552 147.223 336.553 147.223 336.553 147.223L397.227 182.273L397.227 182.273C403.213 185.733 410.587 185.733 416.573 182.273L416.573 182.273L477.247 147.223C483.234 143.764 486.921 137.375 486.921 130.456V60.3562C486.921 53.4375 483.229 47.0482 477.242 43.5883L416.568 8.53865L416.567 8.53855ZM406.9 46.5008C379.909 46.5008 358.024 68.3986 358.024 95.4059C358.024 122.413 379.909 144.311 406.9 144.311C433.891 144.311 455.776 122.413 455.776 95.4059C455.776 68.3986 433.891 46.5008 406.9 46.5008ZM355.708 95.4059C355.708 67.119 378.63 44.1838 406.9 44.1838C435.17 44.1838 458.092 67.119 458.092 95.4059C458.092 123.693 435.17 146.628 406.9 146.628C378.63 146.628 355.708 123.693 355.708 95.4059Z" fill="url(#paint2_linear)"/>
<path fill-rule="evenodd" clip-rule="evenodd" d="M580.129 6.77525C580.129 6.77528 580.129 6.77532 580.129 6.77535L640.803 41.825L640.803 41.8251C647.506 45.6985 651.634 52.8521 651.634 60.5935V130.699C651.634 138.446 647.506 145.6 640.803 149.473L640.803 149.473L580.129 184.523C573.426 188.396 565.169 188.396 558.466 184.523L497.792 149.473L497.792 149.473C491.089 145.6 486.961 138.446 486.961 130.699V60.5993C486.961 52.8523 491.089 45.6986 497.792 41.8251L497.792 41.825L558.466 6.77535C558.466 6.77532 558.466 6.77528 558.466 6.77525C565.169 2.90174 573.426 2.90174 580.129 6.77525ZM578.971 8.78171C572.984 5.32219 565.611 5.32219 559.624 8.78171L559.624 8.78181L498.95 43.8315C492.963 47.2911 489.277 53.68 489.277 60.5993V130.699C489.277 137.618 492.963 144.007 498.95 147.467L559.624 182.516L559.624 182.516C565.611 185.976 572.984 185.976 578.971 182.516L578.971 182.516L639.645 147.467C645.631 144.007 649.318 137.618 649.318 130.699V60.5935C649.318 53.6802 645.632 47.2912 639.645 43.8315L578.971 8.78181L578.971 8.78171ZM569.297 46.7381C542.306 46.7381 520.421 68.636 520.421 95.6433C520.421 122.651 542.306 144.548 569.297 144.548C596.289 144.548 618.174 122.651 618.174 95.6433C618.174 68.636 596.289 46.7381 569.297 46.7381ZM518.106 95.6433C518.106 67.3564 541.027 44.4212 569.297 44.4212C597.568 44.4212 620.489 67.3564 620.489 95.6433C620.489 123.93 597.568 146.865 569.297 146.865C541.027 146.865 518.106 123.93 518.106 95.6433Z" fill="url(#paint3_linear)"/>
<path fill-rule="evenodd" clip-rule="evenodd" d="M742.527 6.53209C742.527 6.53212 742.527 6.53215 742.527 6.53218L803.201 41.5818L803.201 41.5819C809.904 45.4554 814.032 52.6091 814.032 60.3562V130.456C814.032 138.203 809.904 145.356 803.201 149.23L803.201 149.23L742.527 184.28C735.824 188.153 727.568 188.153 720.865 184.28L660.191 149.23L660.19 149.23C653.488 145.356 649.359 138.203 649.359 130.456V60.3562C649.359 52.6091 653.488 45.4554 660.19 41.5819L660.191 41.5818L720.865 6.53218C720.865 6.53215 720.865 6.53212 720.865 6.53209C727.568 2.65858 735.824 2.65858 742.527 6.53209ZM741.369 8.53855C735.383 5.07903 728.009 5.07903 722.023 8.53855L722.023 8.53865L661.348 43.5883C655.362 47.0479 651.675 53.4369 651.675 60.3562V130.456C651.675 137.375 655.362 143.764 661.348 147.223L722.023 182.273L722.023 182.273C728.009 185.733 735.383 185.733 741.369 182.273L741.369 182.273L802.043 147.223C808.03 143.764 811.717 137.375 811.717 130.456V60.3562C811.717 53.4369 808.03 47.0479 802.043 43.5883L741.369 8.53865L741.369 8.53855ZM731.702 46.5008C704.71 46.5008 682.825 68.3986 682.825 95.4059C682.825 122.413 704.71 144.311 731.702 144.311C758.693 144.311 780.578 122.413 780.578 95.4059C780.578 68.3986 758.693 46.5008 731.702 46.5008ZM680.51 95.4059C680.51 67.119 703.432 44.1838 731.702 44.1838C759.972 44.1838 782.894 67.119 782.894 95.4059C782.894 123.693 759.972 146.628 731.702 146.628C703.432 146.628 680.51 123.693 680.51 95.4059Z" fill="url(#paint4_linear)"/>
<path fill-rule="evenodd" clip-rule="evenodd" d="M904.93 6.77525C904.93 6.77528 904.93 6.77532 904.931 6.77535L965.605 41.825L965.605 41.8251C972.307 45.6985 976.436 52.8521 976.436 60.5935V130.699C976.436 138.446 972.307 145.6 965.605 149.473L965.605 149.473L904.931 184.523C898.228 188.396 889.971 188.396 883.268 184.523L822.594 149.473L822.594 149.473C815.891 145.6 811.763 138.446 811.763 130.699V60.5993C811.763 52.8523 815.891 45.6986 822.594 41.8251L822.594 41.825L883.268 6.77535C883.268 6.77532 883.268 6.77528 883.268 6.77525C889.971 2.90174 898.227 2.90174 904.93 6.77525ZM903.772 8.78171C897.786 5.32219 890.412 5.32219 884.426 8.78171L884.426 8.78181L823.752 43.8315C823.752 43.8315 823.752 43.8315 823.752 43.8316C817.765 47.2912 814.078 53.6801 814.078 60.5993V130.699C814.078 137.618 817.765 144.007 823.752 147.467C823.752 147.467 823.752 147.467 823.752 147.467L884.426 182.516L884.426 182.516C890.412 185.976 897.786 185.976 903.772 182.516L903.773 182.516L964.447 147.467C970.433 144.007 974.12 137.618 974.12 130.699V60.5935C974.12 53.6802 970.433 47.2912 964.447 43.8315L903.773 8.78181L903.772 8.78171ZM894.099 46.7381C867.108 46.7381 845.223 68.636 845.223 95.6433C845.223 122.651 867.108 144.548 894.099 144.548C921.096 144.548 942.975 122.651 942.975 95.6433C942.975 68.636 921.091 46.7381 894.099 46.7381ZM842.907 95.6433C842.907 67.3564 865.829 44.4212 894.099 44.4212C922.369 44.4212 945.291 67.3564 945.291 95.6433C945.291 123.93 922.375 146.865 894.099 146.865C865.829 146.865 842.907 123.93 842.907 95.6433Z" fill="url(#paint5_linear)"/>
<path fill-rule="evenodd" clip-rule="evenodd" d="M1067.33 6.53209C1067.33 6.53212 1067.33 6.53206 1067.33 6.53209L1128 41.5817C1134.71 45.4549 1138.84 52.6086 1138.83 60.357L1137.68 60.3561H1138.83V60.357V130.456C1138.83 138.203 1134.71 145.356 1128 149.23L1067.33 184.28C1060.63 188.153 1052.37 188.153 1045.67 184.28L984.992 149.23C978.29 145.356 974.161 138.203 974.161 130.456V60.3561C974.161 52.609 978.289 45.4553 984.992 41.5818L1045.67 6.53209C1052.37 2.65857 1060.63 2.65857 1067.33 6.53209ZM1066.17 8.53845C1060.18 5.07893 1052.81 5.07893 1046.82 8.53845L986.15 43.5882C986.15 43.5882 986.15 43.5882 986.15 43.5882C980.164 47.0479 976.477 53.4369 976.477 60.3561V130.456C976.477 137.375 980.164 143.764 986.15 147.223C986.15 147.223 986.15 147.223 986.15 147.223L1046.82 182.273C1052.81 185.733 1060.18 185.733 1066.17 182.273L1126.85 147.223C1132.83 143.764 1136.52 137.375 1136.52 130.456V60.3551C1136.52 53.4372 1132.83 47.0482 1126.85 43.5882L1066.17 8.53845ZM1056.5 46.5007C1029.51 46.5007 1007.63 68.3985 1007.63 95.4058C1007.63 122.413 1029.51 144.311 1056.5 144.311C1083.49 144.311 1105.38 122.413 1105.38 95.4058C1105.38 68.3985 1083.49 46.5007 1056.5 46.5007ZM1005.31 95.4058C1005.31 67.1189 1028.23 44.1837 1056.5 44.1837C1084.77 44.1837 1107.7 67.1189 1107.7 95.4058C1107.7 123.693 1084.77 146.628 1056.5 146.628C1028.23 146.628 1005.31 123.693 1005.31 95.4058Z" fill="url(#paint6_linear)"/>
<path fill-rule="evenodd" clip-rule="evenodd" d="M1229.73 6.77525C1229.73 6.77528 1229.73 6.77532 1229.73 6.77535L1290.41 41.825L1290.41 41.8251C1297.11 45.6985 1301.24 52.8521 1301.24 60.5935V130.699C1301.24 138.446 1297.11 145.6 1290.41 149.473L1290.41 149.473L1229.73 184.523C1223.03 188.396 1214.77 188.396 1208.07 184.523L1147.4 149.473L1147.4 149.473C1140.69 145.6 1136.56 138.446 1136.56 130.699V60.5993C1136.56 52.8523 1140.69 45.6986 1147.4 41.8251L1147.4 41.825L1208.07 6.77535C1208.07 6.77532 1208.07 6.77528 1208.07 6.77525C1214.77 2.90174 1223.03 2.90174 1229.73 6.77525ZM1228.57 8.78171C1222.59 5.32219 1215.21 5.32219 1209.23 8.78171L1209.23 8.78181L1148.55 43.8315C1142.57 47.2911 1138.88 53.68 1138.88 60.5993V130.699C1138.88 137.618 1142.57 144.007 1148.55 147.467L1209.23 182.516L1209.23 182.516C1215.21 185.976 1222.59 185.976 1228.57 182.516L1228.57 182.516L1289.25 147.467C1295.23 144.007 1298.92 137.618 1298.92 130.699V60.5935C1298.92 53.6802 1295.24 47.2912 1289.25 43.8315L1228.57 8.78181L1228.57 8.78171ZM1218.9 46.7381C1191.91 46.7381 1170.02 68.636 1170.02 95.6433C1170.02 122.651 1191.91 144.548 1218.9 144.548C1245.9 144.548 1267.78 122.651 1267.78 95.6433C1267.78 68.636 1245.89 46.7381 1218.9 46.7381ZM1167.71 95.6433C1167.71 67.3564 1190.63 44.4212 1218.9 44.4212C1247.17 44.4212 1270.09 67.3564 1270.09 95.6433C1270.09 123.93 1247.18 146.865 1218.9 146.865C1190.63 146.865 1167.71 123.93 1167.71 95.6433Z" fill="url(#paint7_linear)"/>
</g>
<defs>
<linearGradient id="paint0_linear" x1="-0.239162" y1="95.404" x2="164.432" y2="95.404" gradientUnits="userSpaceOnUse">
<stop stop-color="#10CE9C"/>
<stop offset="1" stop-color="#0F0FD1"/>
</linearGradient>
<linearGradient id="paint1_linear" x1="162.161" y1="95.6455" x2="326.832" y2="95.6455" gradientUnits="userSpaceOnUse">
<stop stop-color="#10CE9C"/>
<stop offset="1" stop-color="#0F0FD1"/>
</linearGradient>
<linearGradient id="paint2_linear" x1="324.563" y1="95.404" x2="489.234" y2="95.404" gradientUnits="userSpaceOnUse">
<stop stop-color="#10CE9C"/>
<stop offset="1" stop-color="#0F0FD1"/>
</linearGradient>
<linearGradient id="paint3_linear" x1="486.963" y1="95.6455" x2="651.634" y2="95.6455" gradientUnits="userSpaceOnUse">
<stop stop-color="#10CE9C"/>
<stop offset="1" stop-color="#0F0FD1"/>
</linearGradient>
<linearGradient id="paint4_linear" x1="649.364" y1="95.404" x2="814.035" y2="95.404" gradientUnits="userSpaceOnUse">
<stop stop-color="#10CE9C"/>
<stop offset="1" stop-color="#0F0FD1"/>
</linearGradient>
<linearGradient id="paint5_linear" x1="811.765" y1="95.6455" x2="976.436" y2="95.6455" gradientUnits="userSpaceOnUse">
<stop stop-color="#10CE9C"/>
<stop offset="1" stop-color="#0F0FD1"/>
</linearGradient>
<linearGradient id="paint6_linear" x1="974.166" y1="95.4039" x2="1138.84" y2="95.4039" gradientUnits="userSpaceOnUse">
<stop stop-color="#10CE9C"/>
<stop offset="1" stop-color="#0F0FD1"/>
</linearGradient>
<linearGradient id="paint7_linear" x1="1136.57" y1="95.6455" x2="1301.24" y2="95.6455" gradientUnits="userSpaceOnUse">
<stop stop-color="#10CE9C"/>
<stop offset="1" stop-color="#0F0FD1"/>
</linearGradient>
<clipPath id="clip0">
<rect width="1302" height="86" fill="white"/>
</clipPath>
</defs>
</svg>
