<svg width="156" height="174" viewBox="0 0 156 174" fill="none" xmlns="http://www.w3.org/2000/svg">
<path d="M146.146 36.2896L87.8508 2.63933C81.7516 -0.879777 74.2419 -0.879777 68.1492 2.63933L9.85409 36.2896C3.75488 39.8087 0 46.3115 0 53.3497V120.65C0 127.688 3.75488 134.191 9.85409 137.71L68.1492 171.361C74.2484 174.88 81.7581 174.88 87.8508 171.361L146.146 137.71C152.245 134.191 156 127.688 156 120.65V53.3497C156 46.3115 152.245 39.8087 146.146 36.2896ZM78.0032 135.066C51.4514 135.066 29.9279 113.547 29.9279 87C29.9279 60.4533 51.4514 38.9338 78.0032 38.9338C104.555 38.9338 126.079 60.4533 126.079 87C126.079 113.547 104.549 135.066 78.0032 135.066Z" fill="#0F0FD1"/>
<path d="M126 87C126 113.51 104.51 135 78 135C51.4903 135 30 113.51 30 87C30 60.4903 51.4903 39 78 39C104.51 39 126 60.4903 126 87ZM38.0916 87C38.0916 109.041 55.9592 126.908 78 126.908C100.041 126.908 117.908 109.041 117.908 87C117.908 64.9592 100.041 47.0916 78 47.0916C55.9592 47.0916 38.0916 64.9592 38.0916 87Z" fill="#E5E5E5"/>
<path d="M92.7353 132.682C103.612 129.174 112.881 121.899 118.873 112.167C124.866 102.435 127.189 90.8844 125.425 79.5924C123.661 68.3003 117.926 58.0082 109.251 50.5671C100.577 43.1261 89.5314 39.0245 78.1025 39.0001L78.0852 47.0917C87.5875 47.112 96.7707 50.5222 103.983 56.7088C111.196 62.8955 115.964 71.4526 117.43 80.8411C118.897 90.2296 116.965 99.8332 111.983 107.925C107.001 116.016 99.2948 122.064 90.2513 124.981L92.7353 132.682Z" fill="#F4B63E"/>
<path d="M65.6455 88.3105H67.6597V91.1548H65.6455V95H62.1177V91.1548H54.8301L54.6714 88.9331L62.0811 77.2266H65.6455V88.3105ZM58.187 88.3105H62.1177V82.0361L61.8857 82.439L58.187 88.3105ZM70.0889 86.2598L71.1143 77.2266H81.0752V80.1685H74.0073L73.5679 83.9893C74.4061 83.5417 75.2972 83.3179 76.2412 83.3179C77.9339 83.3179 79.2604 83.8428 80.2207 84.8926C81.181 85.9424 81.6611 87.4113 81.6611 89.2993C81.6611 90.4468 81.417 91.4762 80.9287 92.3877C80.4486 93.291 79.7568 93.995 78.8535 94.4995C77.9502 94.9959 76.8841 95.2441 75.6553 95.2441C74.5811 95.2441 73.5841 95.0285 72.6646 94.5972C71.745 94.1577 71.0166 93.5433 70.4795 92.7539C69.9505 91.9645 69.6698 91.0653 69.6372 90.0562H73.1284C73.2017 90.7967 73.458 91.3745 73.8975 91.7896C74.3451 92.1965 74.9269 92.3999 75.6431 92.3999C76.4406 92.3999 77.055 92.1151 77.4863 91.5454C77.9176 90.9676 78.1333 90.1538 78.1333 89.104C78.1333 88.0949 77.8851 87.3218 77.3887 86.7847C76.8923 86.2476 76.1883 85.979 75.2769 85.979C74.4386 85.979 73.7591 86.1987 73.2383 86.6382L72.8965 86.9556L70.0889 86.2598ZM83.8706 80.6445C83.8706 79.554 84.2246 78.6711 84.9326 77.9956C85.6406 77.312 86.5684 76.9702 87.7158 76.9702C88.8796 76.9702 89.8154 77.3079 90.5234 77.9834C91.2314 78.6507 91.5854 79.5581 91.5854 80.7056V81.5845C91.5854 82.6831 91.2314 83.5661 90.5234 84.2334C89.8154 84.9007 88.8877 85.2344 87.7402 85.2344C86.5846 85.2344 85.6488 84.9007 84.9326 84.2334C84.2246 83.5579 83.8706 82.6506 83.8706 81.5112V80.6445ZM86.2144 81.5845C86.2144 82.0728 86.3527 82.4674 86.6294 82.7686C86.9142 83.0615 87.2845 83.208 87.7402 83.208C88.196 83.208 88.5581 83.0575 88.8267 82.7563C89.0952 82.4552 89.2295 82.0524 89.2295 81.5479V80.6445C89.2295 80.1562 89.0952 79.7616 88.8267 79.4604C88.5581 79.1593 88.1878 79.0088 87.7158 79.0088C87.2682 79.0088 86.9061 79.1593 86.6294 79.4604C86.3527 79.7534 86.2144 80.1644 86.2144 80.6934V81.5845ZM92.3667 90.6421C92.3667 89.5435 92.7248 88.6605 93.4409 87.9932C94.1571 87.3177 95.0848 86.98 96.2241 86.98C97.3797 86.98 98.3115 87.3136 99.0195 87.981C99.7357 88.6401 100.094 89.5516 100.094 90.7153V91.5942C100.094 92.6847 99.7438 93.5677 99.0439 94.2432C98.3441 94.9105 97.4123 95.2441 96.2485 95.2441C95.0767 95.2441 94.1367 94.9064 93.4287 94.231C92.7207 93.5555 92.3667 92.6603 92.3667 91.5454V90.6421ZM94.7104 91.5942C94.7104 92.0418 94.8569 92.4243 95.1499 92.7417C95.4429 93.0591 95.8091 93.2178 96.2485 93.2178C97.2414 93.2178 97.7378 92.6685 97.7378 91.5698V90.6421C97.7378 90.1538 97.5994 89.7632 97.3228 89.4702C97.0461 89.1691 96.6799 89.0186 96.2241 89.0186C95.7684 89.0186 95.4022 89.1691 95.1255 89.4702C94.8488 89.7632 94.7104 90.166 94.7104 90.6787V91.5942ZM88.436 93.6694L86.7148 92.7417L95.394 78.8501L97.1152 79.7778L88.436 93.6694Z" fill="black"/>
</svg>
