<svg width="52" height="40" viewBox="0 0 52 40" fill="none" xmlns="http://www.w3.org/2000/svg">
<path d="M49.1965 31.5531C48.9222 31.4362 48.8487 31.0809 49.0586 30.8681L51.2711 28.6121C51.3491 28.5326 51.3925 28.4262 51.3925 28.3153V26.8387C51.3925 26.6049 51.2037 26.416 50.9698 26.416H41.9173C41.6835 26.416 41.4946 26.6049 41.4946 26.8387V28.8339C41.4946 29.0678 41.6835 29.2566 41.9173 29.2566H45.9511C46.3379 29.2566 46.5223 29.7333 46.2344 29.9927L44.7489 31.3373C44.62 31.4542 44.5765 31.6371 44.6365 31.799L45.1582 33.1916C45.2331 33.3939 45.449 33.5078 45.6573 33.4524C45.8717 33.3969 46.119 33.3624 46.3319 33.3624C47.3587 33.3624 48.0917 34.0955 48.0917 35.1223C48.0917 36.0861 47.3032 36.8791 46.3394 36.8821C45.332 36.8866 44.65 36.1161 44.4147 34.9889C44.3682 34.7685 44.1628 34.6171 43.9395 34.6501L41.2877 35.0293C41.0569 35.0623 40.8965 35.2752 40.928 35.506C41.2787 38.1293 43.3009 40.0001 46.3499 40.0001C49.5023 40.0001 51.7763 38.1113 51.7763 35.4716C51.7778 33.6847 50.7255 32.1992 49.1965 31.5531Z" fill="#0F0FD1"/>
<path d="M33.5479 8.33188L20.1662 0.605975C18.7661 -0.201992 17.0423 -0.201992 15.6437 0.605975L2.26201 8.33188C0.861936 9.13985 0 10.6329 0 12.2488V27.7006C0 29.3165 0.861936 30.8096 2.26201 31.6175L15.6437 39.3434C17.0438 40.1514 18.7676 40.1514 20.1662 39.3434L33.5479 31.6175C34.948 30.8096 35.8099 29.3165 35.8099 27.7006V12.2488C35.8099 10.6329 34.948 9.13985 33.5479 8.33188ZM17.9057 31.0104C11.8107 31.0104 6.86996 26.0697 6.86996 19.9747C6.86996 13.8797 11.8107 8.93899 17.9057 8.93899C24.0007 8.93899 28.9414 13.8797 28.9414 19.9747C28.9414 26.0697 23.9992 31.0104 17.9057 31.0104Z" fill="#0F0FD1"/>
</svg>
