<svg width="166" height="38" viewBox="0 0 166 38" fill="none" xmlns="http://www.w3.org/2000/svg">
<path d="M45.6174 30.1677C45.3631 30.0593 45.295 29.7298 45.4896 29.5325L47.5411 27.4406C47.6134 27.3669 47.6537 27.2682 47.6537 27.1654V25.7963C47.6537 25.5794 47.4786 25.4043 47.2618 25.4043H38.8678C38.651 25.4043 38.4758 25.5794 38.4758 25.7963V27.6463C38.4758 27.8631 38.651 28.0383 38.8678 28.0383H42.6082C42.9668 28.0383 43.1377 28.4803 42.8709 28.7207L41.4934 29.9675C41.3739 30.0759 41.3336 30.2455 41.3892 30.3956L41.8729 31.6869C41.9424 31.8746 42.1425 31.9802 42.3357 31.9288C42.5345 31.8773 42.7638 31.8454 42.9612 31.8454C43.9133 31.8454 44.593 32.5251 44.593 33.4772C44.593 34.3709 43.8619 35.1062 42.9682 35.109C42.0341 35.1132 41.4017 34.3987 41.1835 33.3535C41.1404 33.1491 40.95 33.0088 40.7429 33.0393L38.284 33.391C38.07 33.4216 37.9212 33.619 37.9504 33.833C38.2757 36.2654 40.1507 38.0001 42.9779 38.0001C45.901 38.0001 48.0096 36.2488 48.0096 33.801C48.0109 32.1442 47.0352 30.7668 45.6174 30.1677Z" fill="white"/>
<path d="M31.1073 8.63589L18.6991 1.47205C17.4009 0.722859 15.8024 0.722859 14.5056 1.47205L2.09745 8.63589C0.799229 9.38507 0 10.7695 0 12.2678V26.5955C0 28.0939 0.799229 29.4783 2.09745 30.2275L14.5056 37.3913C15.8038 38.1405 17.4023 38.1405 18.6991 37.3913L31.1073 30.2275C32.4055 29.4783 33.2047 28.0939 33.2047 26.5955V12.2678C33.2047 10.7695 32.4055 9.38507 31.1073 8.63589ZM16.603 29.6646C10.9515 29.6646 6.37017 25.0833 6.37017 19.4317C6.37017 13.7801 10.9515 9.19883 16.603 9.19883C22.2546 9.19883 26.8359 13.7801 26.8359 19.4317C26.8359 25.0833 22.2532 29.6646 16.603 29.6646Z" fill="white"/>
<path d="M63.132 22.1696C63.4934 22.4323 63.8756 22.6741 64.2773 22.8951C64.679 23.1161 65.1071 23.2273 65.5589 23.2273C65.8758 23.2273 66.1218 23.1578 66.2983 23.0174C66.4749 22.8771 66.5624 22.6811 66.5624 22.4281C66.5624 22.2113 66.486 22.0306 66.3317 21.886C66.1774 21.7415 65.9703 21.6066 65.7076 21.4788L64.6763 21.0715C64.4136 20.9631 64.1564 20.8338 63.9034 20.6851C63.6505 20.5364 63.4239 20.3529 63.2251 20.1361C63.0264 19.9192 62.8665 19.6676 62.7442 19.3827C62.6219 19.0978 62.5607 18.7711 62.5607 18.4C62.5607 18.0289 62.6261 17.6883 62.7581 17.3756C62.8888 17.0642 63.0806 16.7918 63.3349 16.5625C63.5879 16.3317 63.8979 16.1538 64.2634 16.0273C64.629 15.9009 65.0432 15.8369 65.5047 15.8369C66.0648 15.8369 66.5735 15.9314 67.0308 16.1219C67.4867 16.3123 67.919 16.5653 68.3263 16.8808L67.4715 18.2499C67.363 18.1693 67.2366 18.0873 67.092 18.0053C66.9475 17.9232 66.7918 17.8496 66.6236 17.7815C66.4554 17.7134 66.2817 17.6578 66.101 17.6119C65.9203 17.5674 65.7437 17.5438 65.5728 17.5438C65.3101 17.5438 65.0849 17.6077 64.8945 17.7342C64.7041 17.8607 64.6095 18.0414 64.6095 18.2763C64.6095 18.5112 64.6929 18.7016 64.8597 18.8462C65.0265 18.9907 65.292 19.1408 65.6534 19.2937L66.6708 19.7552C67.2407 19.9998 67.7064 20.3209 68.0678 20.7184C68.4291 21.116 68.6098 21.6219 68.6098 22.2377C68.6098 22.663 68.5334 23.0425 68.3791 23.3774C68.2248 23.7124 68.0108 23.9946 67.7356 24.2253C67.459 24.456 67.1323 24.634 66.7528 24.7604C66.3734 24.8869 65.962 24.9509 65.5186 24.9509C65.2114 24.9509 64.9098 24.9119 64.6165 24.8355C64.3232 24.7591 64.0355 24.6576 63.7547 24.5297C63.4739 24.4032 63.2071 24.2587 62.9541 24.0961C62.7011 23.9334 62.4662 23.7611 62.2494 23.5804L63.132 22.1696Z" fill="white"/>
<path d="M70.0345 15.8916H70.5766L74.442 20.5424L78.32 15.8916H78.8482V24.7873H76.8008V20.1365L74.4406 23.0388L72.0805 20.124V24.7887H70.0331V15.8916H70.0345Z" fill="white"/>
<path d="M83.5811 15.9033H84.1913L87.9344 24.7851H85.9009L85.3991 23.5106H82.3885L81.9131 24.7851H79.9199L83.5811 15.9033ZM82.9431 22.0469H84.8279L83.8785 19.5923L82.9431 22.0469Z" fill="white"/>
<path d="M95.6501 24.7873H93.6291L91.704 21.3291H91.0535V24.7873H89.0325V16H92.057C92.5546 16 92.9966 16.0639 93.3858 16.1904C93.775 16.3266 94.0961 16.5073 94.3491 16.7325C94.6118 16.9674 94.8105 17.2482 94.9454 17.5734C95.0816 17.8987 95.1483 18.2517 95.1483 18.6312C95.1483 19.3359 94.9676 19.9016 94.6062 20.3269C94.3352 20.6439 93.9918 20.8871 93.5749 21.0594L95.6501 24.7873ZM91.0257 17.6401V20.0003H91.7443C92.2141 20.0003 92.5671 19.8947 92.802 19.682C93.0369 19.4693 93.1551 19.183 93.1551 18.8202C93.1551 18.4491 93.0369 18.16 92.802 17.9529C92.5671 17.7458 92.2322 17.6415 91.7985 17.6415H91.0257V17.6401Z" fill="white"/>
<path d="M95.8809 16H102.512V17.7625H100.206V24.7873H98.1993V17.7625H95.8809V16Z" fill="white"/>
<path d="M62.1646 28.6094H62.7067L66.5722 33.2602L70.4501 28.6094H70.9783V37.5051H68.9309V32.8543L66.5708 35.7565L64.2106 32.8404V37.5051H62.1632V28.6094H62.1646Z" fill="white"/>
<path d="M75.7126 28.623H76.3227L80.0659 37.5049H78.0324L77.5306 36.2303H74.52L74.0446 37.5049H72.0514L75.7126 28.623ZM75.0746 34.7653H76.9593L76.01 32.3106L75.0746 34.7653Z" fill="white"/>
<path d="M81.1361 28.6094H81.6921L86.2887 33.4909V28.7178H88.3097V37.6135H87.7676L83.1835 32.7181V37.5051H81.1361V28.6094V28.6094Z" fill="white"/>
<path d="M90.182 28.7178H92.203V34.1289C92.203 34.6446 92.3517 35.0629 92.6506 35.3826C92.9494 35.7037 93.3372 35.8635 93.8168 35.8635C94.2866 35.8635 94.673 35.7037 94.976 35.3826C95.279 35.0615 95.4305 34.6432 95.4305 34.1289V28.7178H97.4515V34.1428C97.4515 34.6223 97.3695 35.0754 97.2068 35.5049C97.0442 35.9344 96.8093 36.3111 96.5021 36.6378C96.195 36.963 95.8155 37.2229 95.3624 37.4175C94.9106 37.6121 94.395 37.7094 93.8168 37.7094C93.2385 37.7094 92.7229 37.6121 92.2711 37.4175C91.8194 37.2229 91.4399 36.963 91.1313 36.6378C90.8242 36.3125 90.5893 35.9344 90.4266 35.5049C90.264 35.0754 90.182 34.6209 90.182 34.1428V28.7178V28.7178Z" fill="white"/>
<path d="M99.3209 28.7178H104.556V30.4941H101.342V32.6097H104.325V34.1956H101.342V37.5051H99.3209V28.7178V28.7178Z" fill="white"/>
<path d="M108.082 28.623H108.692L112.435 37.5049H110.402L109.9 36.2303H106.889L106.414 37.5049H104.421L108.082 28.623ZM107.444 34.7653H109.329L108.379 32.3106L107.444 34.7653Z" fill="white"/>
<path d="M120.516 36.5013C120.326 36.6278 120.127 36.7585 119.92 36.8947C119.712 37.0295 119.479 37.1574 119.222 37.2742C118.965 37.3909 118.673 37.4868 118.348 37.5591C118.023 37.6314 117.648 37.6675 117.222 37.6675C116.572 37.6675 115.973 37.5549 115.425 37.3284C114.877 37.1032 114.408 36.7863 114.014 36.379C113.621 35.9718 113.316 35.4881 113.098 34.9279C112.881 34.3678 112.773 33.752 112.773 33.0834C112.773 32.3968 112.892 31.7727 113.133 31.2126C113.372 30.6524 113.696 30.1701 114.103 29.7684C114.51 29.3667 114.983 29.0567 115.521 28.8399C116.059 28.6231 116.626 28.5146 117.222 28.5146C117.575 28.5146 117.895 28.5438 118.185 28.6022C118.475 28.6606 118.739 28.7357 118.979 28.826C119.218 28.9163 119.434 29.0164 119.623 29.1248C119.813 29.2333 119.984 29.3333 120.138 29.4237L119.297 30.929C119.125 30.8303 118.876 30.7094 118.551 30.569C118.226 30.4286 117.827 30.3591 117.357 30.3591C116.996 30.3591 116.661 30.4244 116.353 30.5551C116.046 30.6858 115.779 30.872 115.553 31.1111C115.326 31.3502 115.148 31.6351 115.018 31.9659C114.887 32.2967 114.82 32.6553 114.82 33.0445C114.82 33.4601 114.886 33.8396 115.018 34.1843C115.148 34.5276 115.332 34.8237 115.567 35.0725C115.802 35.3213 116.077 35.5131 116.394 35.6493C116.711 35.7855 117.054 35.8522 117.425 35.8522C117.696 35.8522 117.945 35.823 118.172 35.7647C118.397 35.7063 118.601 35.6354 118.782 35.5548C118.962 35.4728 119.122 35.388 119.263 35.2976C119.403 35.2073 119.531 35.1253 119.649 35.053L120.516 36.5013Z" fill="white"/>
<path d="M120.952 28.7178H127.583V30.4802H125.277V37.5051H123.27V30.4802H120.952V28.7178Z" fill="white"/>
<path d="M128.653 28.7178H130.674V34.1289C130.674 34.6446 130.823 35.0629 131.122 35.3826C131.421 35.7037 131.808 35.8635 132.288 35.8635C132.758 35.8635 133.144 35.7037 133.447 35.3826C133.75 35.0615 133.902 34.6432 133.902 34.1289V28.7178H135.923V34.1428C135.923 34.6223 135.841 35.0754 135.678 35.5049C135.515 35.9344 135.281 36.3111 134.973 36.6378C134.666 36.963 134.287 37.2229 133.834 37.4175C133.382 37.6121 132.866 37.7094 132.288 37.7094C131.71 37.7094 131.194 37.6121 130.742 37.4175C130.291 37.2229 129.911 36.963 129.603 36.6378C129.295 36.3125 129.06 35.9344 128.898 35.5049C128.735 35.0754 128.653 34.6209 128.653 34.1428V28.7178V28.7178Z" fill="white"/>
<path d="M144.438 37.5051H142.417L140.491 34.0469H139.841V37.5051H137.82V28.7178H140.844C141.342 28.7178 141.784 28.7817 142.173 28.9082C142.562 29.0444 142.884 29.2251 143.137 29.4503C143.399 29.6852 143.598 29.9659 143.733 30.2912C143.868 30.6164 143.936 30.9695 143.936 31.349C143.936 32.0537 143.755 32.6194 143.394 33.0447C143.123 33.3616 142.779 33.6063 142.362 33.7772L144.438 37.5051ZM139.813 30.3593V32.7195H140.532C141.002 32.7195 141.355 32.6138 141.59 32.4012C141.824 32.1885 141.943 31.9022 141.943 31.5394C141.943 31.1683 141.824 30.8792 141.59 30.6721C141.355 30.4636 141.02 30.3607 140.586 30.3607H139.813V30.3593Z" fill="white"/>
<path d="M145.591 28.7178H147.612V37.5051H145.591V28.7178Z" fill="white"/>
<path d="M149.592 28.6094H150.148L154.744 33.4909V28.7178H156.765V37.6135H156.223L151.639 32.7181V37.5051H149.592V28.6094V28.6094Z" fill="white"/>
<path d="M162.501 32.6234H166V36.4874C165.828 36.6139 165.634 36.7446 165.416 36.8808C165.199 37.0156 164.953 37.1435 164.677 37.2603C164.402 37.3784 164.096 37.4743 163.762 37.5521C163.427 37.6286 163.057 37.6675 162.65 37.6675C161.972 37.6675 161.355 37.5633 160.799 37.3562C160.243 37.1491 159.766 36.8474 159.369 36.4541C158.971 36.0607 158.664 35.5812 158.447 35.0169C158.23 34.4525 158.122 33.8173 158.122 33.1112C158.122 32.3968 158.237 31.7574 158.468 31.1931C158.699 30.6288 159.013 30.1465 159.41 29.7489C159.808 29.3514 160.278 29.0456 160.821 28.8329C161.363 28.6203 161.941 28.5146 162.557 28.5146C162.918 28.5146 163.251 28.5438 163.554 28.6022C163.857 28.6606 164.139 28.7384 164.402 28.8329C164.664 28.9275 164.907 29.0345 165.134 29.1513C165.359 29.2694 165.577 29.3903 165.785 29.5168L164.93 31.0221C164.667 30.8678 164.342 30.7122 163.953 30.5537C163.563 30.3953 163.144 30.316 162.692 30.316C162.321 30.316 161.98 30.3744 161.667 30.4926C161.356 30.6107 161.086 30.7872 160.861 31.0221C160.635 31.257 160.457 31.5489 160.326 31.8964C160.196 32.2453 160.129 32.6498 160.129 33.1098C160.129 33.5532 160.194 33.9466 160.326 34.2899C160.457 34.6332 160.636 34.9251 160.861 35.1642C161.086 35.4033 161.353 35.5854 161.662 35.7063C161.969 35.8286 162.294 35.8898 162.638 35.8898C163.045 35.8898 163.367 35.8536 163.608 35.7813C163.847 35.7091 164.057 35.6229 164.239 35.5242V34.2357H162.503V32.6234H162.501Z" fill="white"/>
</svg>
