<svg width="30" height="30" viewBox="0 0 30 30" fill="none" xmlns="http://www.w3.org/2000/svg">
<path d="M20.2146 8.9668C18.1177 9.53955 17.1082 11.9493 18.1949 13.8442L20.2146 11.8244V8.9668Z" fill="white"/>
<path d="M20.625 27.2461H19.4946L19.143 25.1367H10.857L10.5054 27.2461H9.375C8.88961 27.2461 8.49609 27.6396 8.49609 28.125C8.49609 28.6104 8.88961 29.0039 9.375 29.0039H20.625C21.1104 29.0039 21.5039 28.6104 21.5039 28.125C21.5039 27.6396 21.1104 27.2461 20.625 27.2461Z" fill="white"/>
<path d="M19.4385 15.0862C21.3308 16.1714 23.7422 15.1664 24.3159 13.0664H21.4583L19.4385 15.0862Z" fill="white"/>
<path d="M27.3633 0.996094H15.8789V3.75C15.8789 4.23539 15.4854 4.62891 15 4.62891C14.5146 4.62891 14.1211 4.23539 14.1211 3.75V0.996094H2.63672C1.18283 0.996094 0 2.17893 0 3.63281V20.7422C0 22.1961 1.18283 23.3789 2.63672 23.3789H27.3633C28.8172 23.3789 30 22.1961 30 20.7422V3.63281C30 2.17893 28.8172 0.996094 27.3633 0.996094ZM13.0664 16.875C13.0664 17.3604 12.6729 17.7539 12.1875 17.7539H4.6875C4.20211 17.7539 3.80859 17.3604 3.80859 16.875V7.5C3.80859 7.01461 4.20211 6.62109 4.6875 6.62109C5.17289 6.62109 5.56641 7.01461 5.56641 7.5V15.9961H7.55859V10.3125C7.55859 9.82711 7.95211 9.43359 8.4375 9.43359C8.92289 9.43359 9.31641 9.82711 9.31641 10.3125V15.9961H11.3086V13.125C11.3086 12.6396 11.7021 12.2461 12.1875 12.2461C12.6729 12.2461 13.0664 12.6396 13.0664 13.125V16.875ZM21.0938 17.2852C18.2836 17.2852 15.9961 14.9977 15.9961 12.1875C15.9961 9.37664 18.2829 7.08984 21.0938 7.08984C23.9046 7.08984 26.1914 9.37664 26.1914 12.1875C26.1914 14.9984 23.9046 17.2852 21.0938 17.2852Z" fill="white"/>
<path d="M21.9727 8.9668V11.3096H24.3154C24.0051 10.1734 23.1088 9.27711 21.9727 8.9668Z" fill="white"/>
</svg>
