<svg width="13" height="14" viewBox="0 0 13 14" fill="none" xmlns="http://www.w3.org/2000/svg">
<path d="M5.00065 0.675781C6.22175 0.675781 7.39284 1.16086 8.25629 2.02431C9.11974 2.88776 9.60482 4.05885 9.60482 5.27995C9.60482 6.42036 9.1869 7.4687 8.49982 8.2762L8.69107 8.46745H9.25065L12.7923 12.0091L11.7298 13.0716L8.18815 9.52995V8.97037L7.9969 8.77911C7.1894 9.4662 6.14107 9.88412 5.00065 9.88412C3.77955 9.88412 2.60846 9.39903 1.74501 8.53559C0.881565 7.67214 0.396484 6.50105 0.396484 5.27995C0.396484 4.05885 0.881565 2.88776 1.74501 2.02431C2.60846 1.16086 3.77955 0.675781 5.00065 0.675781ZM5.00065 2.09245C3.22982 2.09245 1.81315 3.50911 1.81315 5.27995C1.81315 7.05078 3.22982 8.46745 5.00065 8.46745C6.77148 8.46745 8.18815 7.05078 8.18815 5.27995C8.18815 3.50911 6.77148 2.09245 5.00065 2.09245Z" fill="#0F0FD1"/>
</svg>
