<svg width="156" height="174" viewBox="0 0 156 174" fill="none" xmlns="http://www.w3.org/2000/svg">
<path d="M146.146 36.2896L87.8508 2.63933C81.7516 -0.879777 74.2419 -0.879777 68.1492 2.63933L9.85409 36.2896C3.75488 39.8087 0 46.3115 0 53.3497V120.65C0 127.688 3.75488 134.191 9.85409 137.71L68.1492 171.361C74.2484 174.88 81.7581 174.88 87.8508 171.361L146.146 137.71C152.245 134.191 156 127.688 156 120.65V53.3497C156 46.3115 152.245 39.8087 146.146 36.2896ZM78.0032 135.066C51.4514 135.066 29.9279 113.547 29.9279 87C29.9279 60.4533 51.4514 38.9338 78.0032 38.9338C104.555 38.9338 126.079 60.4533 126.079 87C126.079 113.547 104.549 135.066 78.0032 135.066Z" fill="#0F0FD1"/>
</svg>
